<mxfile host="app.diagrams.net" modified="2023-06-27T03:12:25.111Z" agent="Mozilla/5.0 (Macintosh; Intel Mac OS X 10_15_7) AppleWebKit/537.36 (KHTML, like Gecko) Chrome/114.0.0.0 Safari/537.36" etag="zcA6M8uL4pqrncNMrKWb" version="21.5.0" type="github">
  <diagram name="페이지-1" id="lG-F-R37Qlg_pKHcpFQY">
    <mxGraphModel dx="1147" dy="617" grid="1" gridSize="10" guides="1" tooltips="1" connect="1" arrows="1" fold="1" page="1" pageScale="1" pageWidth="827" pageHeight="1169" math="0" shadow="0">
      <root>
        <mxCell id="0" />
        <mxCell id="1" parent="0" />
        <mxCell id="P-wajaCejd0a9nJOUH1o-1" value="Region" style="points=[[0,0],[0.25,0],[0.5,0],[0.75,0],[1,0],[1,0.25],[1,0.5],[1,0.75],[1,1],[0.75,1],[0.5,1],[0.25,1],[0,1],[0,0.75],[0,0.5],[0,0.25]];outlineConnect=0;gradientColor=none;html=1;whiteSpace=wrap;fontSize=12;fontStyle=0;container=1;pointerEvents=0;collapsible=0;recursiveResize=0;shape=mxgraph.aws4.group;grIcon=mxgraph.aws4.group_region;strokeColor=#147EBA;fillColor=none;verticalAlign=top;align=left;spacingLeft=30;fontColor=#147EBA;" parent="1" vertex="1">
          <mxGeometry x="40" y="80" width="1000" height="840" as="geometry" />
        </mxCell>
        <mxCell id="P-wajaCejd0a9nJOUH1o-2" value="" style="rounded=1;arcSize=10;dashed=1;strokeColor=#F59D56;fillColor=none;gradientColor=none;dashPattern=8 4;strokeWidth=2;" parent="P-wajaCejd0a9nJOUH1o-1" vertex="1">
          <mxGeometry x="520" y="40" width="360" height="760" as="geometry" />
        </mxCell>
        <mxCell id="P-wajaCejd0a9nJOUH1o-3" value="Private subnet" style="points=[[0,0],[0.25,0],[0.5,0],[0.75,0],[1,0],[1,0.25],[1,0.5],[1,0.75],[1,1],[0.75,1],[0.5,1],[0.25,1],[0,1],[0,0.75],[0,0.5],[0,0.25]];outlineConnect=0;gradientColor=none;html=1;whiteSpace=wrap;fontSize=12;fontStyle=0;container=1;pointerEvents=0;collapsible=0;recursiveResize=0;shape=mxgraph.aws4.group;grIcon=mxgraph.aws4.group_security_group;grStroke=0;strokeColor=#147EBA;fillColor=#E6F2F8;verticalAlign=top;align=left;spacingLeft=30;fontColor=#147EBA;dashed=0;" parent="P-wajaCejd0a9nJOUH1o-1" vertex="1">
          <mxGeometry x="560" y="340" width="280" height="120" as="geometry" />
        </mxCell>
        <mxCell id="P-wajaCejd0a9nJOUH1o-4" value="VPC" style="points=[[0,0],[0.25,0],[0.5,0],[0.75,0],[1,0],[1,0.25],[1,0.5],[1,0.75],[1,1],[0.75,1],[0.5,1],[0.25,1],[0,1],[0,0.75],[0,0.5],[0,0.25]];outlineConnect=0;gradientColor=none;html=1;whiteSpace=wrap;fontSize=12;fontStyle=0;container=1;pointerEvents=0;collapsible=0;recursiveResize=0;shape=mxgraph.aws4.group;grIcon=mxgraph.aws4.group_vpc;strokeColor=#248814;fillColor=none;verticalAlign=top;align=left;spacingLeft=30;fontColor=#AAB7B8;dashed=0;" parent="P-wajaCejd0a9nJOUH1o-1" vertex="1">
          <mxGeometry x="40" y="80" width="920" height="680" as="geometry" />
        </mxCell>
        <mxCell id="P-wajaCejd0a9nJOUH1o-5" value="" style="rounded=1;arcSize=10;dashed=1;strokeColor=#F59D56;fillColor=none;gradientColor=none;dashPattern=8 4;strokeWidth=2;" parent="P-wajaCejd0a9nJOUH1o-4" vertex="1">
          <mxGeometry x="80" y="-40" width="360" height="760" as="geometry" />
        </mxCell>
        <mxCell id="P-wajaCejd0a9nJOUH1o-6" value="" style="points=[[0,0],[0.25,0],[0.5,0],[0.75,0],[1,0],[1,0.25],[1,0.5],[1,0.75],[1,1],[0.75,1],[0.5,1],[0.25,1],[0,1],[0,0.75],[0,0.5],[0,0.25]];outlineConnect=0;gradientColor=none;html=1;whiteSpace=wrap;fontSize=12;fontStyle=0;container=1;pointerEvents=0;collapsible=0;recursiveResize=0;shape=mxgraph.aws4.group;grIcon=mxgraph.aws4.group_security_group;grStroke=0;strokeColor=#248814;fillColor=#E9F3E6;verticalAlign=top;align=left;spacingLeft=30;fontColor=#248814;dashed=0;" parent="P-wajaCejd0a9nJOUH1o-4" vertex="1">
          <mxGeometry x="120" y="40" width="280" height="120" as="geometry" />
        </mxCell>
        <mxCell id="P-wajaCejd0a9nJOUH1o-7" value="Bastion Host" style="outlineConnect=0;dashed=0;verticalLabelPosition=bottom;verticalAlign=top;align=center;html=1;shape=mxgraph.aws3.instances;fillColor=#F58534;gradientColor=none;" parent="P-wajaCejd0a9nJOUH1o-6" vertex="1">
          <mxGeometry x="184" y="28.5" width="60" height="63" as="geometry" />
        </mxCell>
        <mxCell id="P-wajaCejd0a9nJOUH1o-8" value="Private subnet" style="points=[[0,0],[0.25,0],[0.5,0],[0.75,0],[1,0],[1,0.25],[1,0.5],[1,0.75],[1,1],[0.75,1],[0.5,1],[0.25,1],[0,1],[0,0.75],[0,0.5],[0,0.25]];outlineConnect=0;gradientColor=none;html=1;whiteSpace=wrap;fontSize=12;fontStyle=0;container=1;pointerEvents=0;collapsible=0;recursiveResize=0;shape=mxgraph.aws4.group;grIcon=mxgraph.aws4.group_security_group;grStroke=0;strokeColor=#147EBA;fillColor=#E6F2F8;verticalAlign=top;align=left;spacingLeft=30;fontColor=#147EBA;dashed=0;" parent="P-wajaCejd0a9nJOUH1o-4" vertex="1">
          <mxGeometry x="120" y="260" width="280" height="120" as="geometry" />
        </mxCell>
        <mxCell id="P-wajaCejd0a9nJOUH1o-9" value="" style="outlineConnect=0;dashed=0;verticalLabelPosition=bottom;verticalAlign=top;align=center;html=1;shape=mxgraph.aws3.vpc_nat_gateway;fillColor=#F58534;gradientColor=none;" parent="P-wajaCejd0a9nJOUH1o-4" vertex="1">
          <mxGeometry x="160" y="70" width="57.5" height="60" as="geometry" />
        </mxCell>
        <mxCell id="P-wajaCejd0a9nJOUH1o-10" value="Auto Scaling group" style="points=[[0,0],[0.25,0],[0.5,0],[0.75,0],[1,0],[1,0.25],[1,0.5],[1,0.75],[1,1],[0.75,1],[0.5,1],[0.25,1],[0,1],[0,0.75],[0,0.5],[0,0.25]];outlineConnect=0;gradientColor=none;html=1;whiteSpace=wrap;fontSize=12;fontStyle=0;container=1;pointerEvents=0;collapsible=0;recursiveResize=0;shape=mxgraph.aws4.groupCenter;grIcon=mxgraph.aws4.group_auto_scaling_group;grStroke=1;strokeColor=#D86613;fillColor=none;verticalAlign=top;align=center;fontColor=#D86613;spacingTop=25;" parent="P-wajaCejd0a9nJOUH1o-4" vertex="1">
          <mxGeometry x="269.5" y="200" width="381" height="205" as="geometry" />
        </mxCell>
        <mxCell id="P-wajaCejd0a9nJOUH1o-11" style="edgeStyle=orthogonalEdgeStyle;rounded=1;orthogonalLoop=1;jettySize=auto;html=1;" parent="P-wajaCejd0a9nJOUH1o-4" source="P-wajaCejd0a9nJOUH1o-13" target="P-wajaCejd0a9nJOUH1o-9" edge="1">
          <mxGeometry relative="1" as="geometry" />
        </mxCell>
        <mxCell id="P-wajaCejd0a9nJOUH1o-12" value="Security group" style="fillColor=none;strokeColor=#DD3522;verticalAlign=top;fontStyle=0;fontColor=#DD3522;whiteSpace=wrap;html=1;" parent="P-wajaCejd0a9nJOUH1o-4" vertex="1">
          <mxGeometry x="280.25" y="250" width="359.5" height="140" as="geometry" />
        </mxCell>
        <mxCell id="P-wajaCejd0a9nJOUH1o-14" style="edgeStyle=orthogonalEdgeStyle;rounded=0;orthogonalLoop=1;jettySize=auto;html=1;" parent="P-wajaCejd0a9nJOUH1o-4" source="P-wajaCejd0a9nJOUH1o-7" target="P-wajaCejd0a9nJOUH1o-13" edge="1">
          <mxGeometry relative="1" as="geometry" />
        </mxCell>
        <mxCell id="P-wajaCejd0a9nJOUH1o-15" value="Internet Gateway" style="outlineConnect=0;dashed=0;verticalLabelPosition=bottom;verticalAlign=top;align=center;html=1;shape=mxgraph.aws3.internet_gateway;fillColor=#F58534;gradientColor=none;" parent="P-wajaCejd0a9nJOUH1o-4" vertex="1">
          <mxGeometry x="431.25" y="-20" width="57.5" height="60" as="geometry" />
        </mxCell>
        <mxCell id="P-wajaCejd0a9nJOUH1o-16" style="edgeStyle=orthogonalEdgeStyle;rounded=1;orthogonalLoop=1;jettySize=auto;html=1;entryX=0;entryY=0.5;entryDx=0;entryDy=0;entryPerimeter=0;" parent="P-wajaCejd0a9nJOUH1o-4" source="P-wajaCejd0a9nJOUH1o-9" target="P-wajaCejd0a9nJOUH1o-15" edge="1">
          <mxGeometry relative="1" as="geometry">
            <Array as="points">
              <mxPoint x="190" y="10" />
            </Array>
          </mxGeometry>
        </mxCell>
        <mxCell id="P-wajaCejd0a9nJOUH1o-17" style="edgeStyle=orthogonalEdgeStyle;rounded=1;orthogonalLoop=1;jettySize=auto;html=1;" parent="P-wajaCejd0a9nJOUH1o-4" source="P-wajaCejd0a9nJOUH1o-15" target="P-wajaCejd0a9nJOUH1o-7" edge="1">
          <mxGeometry relative="1" as="geometry" />
        </mxCell>
        <mxCell id="P-wajaCejd0a9nJOUH1o-18" value="ALB" style="outlineConnect=0;dashed=0;verticalLabelPosition=middle;verticalAlign=middle;align=left;html=1;shape=mxgraph.aws3.application_load_balancer;fillColor=#F58534;gradientColor=none;labelPosition=right;" parent="P-wajaCejd0a9nJOUH1o-4" vertex="1">
          <mxGeometry x="431.25" y="90" width="57.5" height="60" as="geometry" />
        </mxCell>
        <mxCell id="P-wajaCejd0a9nJOUH1o-19" style="edgeStyle=orthogonalEdgeStyle;rounded=0;orthogonalLoop=1;jettySize=auto;html=1;" parent="P-wajaCejd0a9nJOUH1o-4" source="P-wajaCejd0a9nJOUH1o-18" target="P-wajaCejd0a9nJOUH1o-10" edge="1">
          <mxGeometry relative="1" as="geometry" />
        </mxCell>
        <mxCell id="P-wajaCejd0a9nJOUH1o-29" value="Private subnet" style="points=[[0,0],[0.25,0],[0.5,0],[0.75,0],[1,0],[1,0.25],[1,0.5],[1,0.75],[1,1],[0.75,1],[0.5,1],[0.25,1],[0,1],[0,0.75],[0,0.5],[0,0.25]];outlineConnect=0;gradientColor=none;html=1;whiteSpace=wrap;fontSize=12;fontStyle=0;container=1;pointerEvents=0;collapsible=0;recursiveResize=0;shape=mxgraph.aws4.group;grIcon=mxgraph.aws4.group_security_group;grStroke=0;strokeColor=#147EBA;fillColor=#E6F2F8;verticalAlign=top;align=left;spacingLeft=30;fontColor=#147EBA;dashed=0;" parent="P-wajaCejd0a9nJOUH1o-4" vertex="1">
          <mxGeometry x="120" y="520" width="280" height="120" as="geometry" />
        </mxCell>
        <mxCell id="P-wajaCejd0a9nJOUH1o-20" style="edgeStyle=orthogonalEdgeStyle;rounded=0;orthogonalLoop=1;jettySize=auto;html=1;entryX=0.5;entryY=0;entryDx=0;entryDy=0;entryPerimeter=0;" parent="P-wajaCejd0a9nJOUH1o-4" source="P-wajaCejd0a9nJOUH1o-15" target="P-wajaCejd0a9nJOUH1o-18" edge="1">
          <mxGeometry relative="1" as="geometry" />
        </mxCell>
        <mxCell id="P-wajaCejd0a9nJOUH1o-41" value="Async" style="edgeStyle=orthogonalEdgeStyle;rounded=0;orthogonalLoop=1;jettySize=auto;html=1;labelBackgroundColor=none;" parent="P-wajaCejd0a9nJOUH1o-4" source="P-wajaCejd0a9nJOUH1o-32" target="P-wajaCejd0a9nJOUH1o-34" edge="1">
          <mxGeometry x="0.0909" y="-20" relative="1" as="geometry">
            <mxPoint as="offset" />
          </mxGeometry>
        </mxCell>
        <mxCell id="P-wajaCejd0a9nJOUH1o-32" value="RDS Primary" style="sketch=0;points=[[0,0,0],[0.25,0,0],[0.5,0,0],[0.75,0,0],[1,0,0],[0,1,0],[0.25,1,0],[0.5,1,0],[0.75,1,0],[1,1,0],[0,0.25,0],[0,0.5,0],[0,0.75,0],[1,0.25,0],[1,0.5,0],[1,0.75,0]];outlineConnect=0;fontColor=#232F3E;gradientColor=#4D72F3;gradientDirection=north;fillColor=#3334B9;strokeColor=#ffffff;dashed=0;verticalLabelPosition=bottom;verticalAlign=top;align=center;html=1;fontSize=12;fontStyle=0;aspect=fixed;shape=mxgraph.aws4.resourceIcon;resIcon=mxgraph.aws4.rds;" parent="P-wajaCejd0a9nJOUH1o-4" vertex="1">
          <mxGeometry x="304" y="550" width="60" height="60" as="geometry" />
        </mxCell>
        <mxCell id="P-wajaCejd0a9nJOUH1o-34" value="RDS&lt;br&gt;Read Replica" style="sketch=0;points=[[0,0,0],[0.25,0,0],[0.5,0,0],[0.75,0,0],[1,0,0],[0,1,0],[0.25,1,0],[0.5,1,0],[0.75,1,0],[1,1,0],[0,0.25,0],[0,0.5,0],[0,0.75,0],[1,0.25,0],[1,0.5,0],[1,0.75,0]];outlineConnect=0;fontColor=#232F3E;gradientColor=#4D72F3;gradientDirection=north;fillColor=#3334B9;strokeColor=#ffffff;dashed=0;verticalLabelPosition=middle;verticalAlign=middle;align=right;html=1;fontSize=12;fontStyle=0;aspect=fixed;shape=mxgraph.aws4.resourceIcon;resIcon=mxgraph.aws4.rds;labelPosition=left;" parent="P-wajaCejd0a9nJOUH1o-4" vertex="1">
          <mxGeometry x="200" y="550" width="60" height="60" as="geometry" />
        </mxCell>
        <mxCell id="P-wajaCejd0a9nJOUH1o-38" value="Read" style="edgeStyle=orthogonalEdgeStyle;rounded=1;orthogonalLoop=1;jettySize=auto;html=1;" parent="P-wajaCejd0a9nJOUH1o-4" source="P-wajaCejd0a9nJOUH1o-13" target="P-wajaCejd0a9nJOUH1o-34" edge="1">
          <mxGeometry x="0.0431" relative="1" as="geometry">
            <Array as="points">
              <mxPoint x="334" y="420" />
              <mxPoint x="230" y="420" />
            </Array>
            <mxPoint as="offset" />
          </mxGeometry>
        </mxCell>
        <mxCell id="P-wajaCejd0a9nJOUH1o-13" value="EC2" style="sketch=0;points=[[0,0,0],[0.25,0,0],[0.5,0,0],[0.75,0,0],[1,0,0],[0,1,0],[0.25,1,0],[0.5,1,0],[0.75,1,0],[1,1,0],[0,0.25,0],[0,0.5,0],[0,0.75,0],[1,0.25,0],[1,0.5,0],[1,0.75,0]];outlineConnect=0;fontColor=#232F3E;gradientColor=#F78E04;gradientDirection=north;fillColor=#D05C17;strokeColor=#ffffff;dashed=0;verticalLabelPosition=bottom;verticalAlign=top;align=center;html=1;fontSize=12;fontStyle=0;aspect=fixed;shape=mxgraph.aws4.resourceIcon;resIcon=mxgraph.aws4.ec2;" parent="P-wajaCejd0a9nJOUH1o-4" vertex="1">
          <mxGeometry x="299" y="285" width="70" height="70" as="geometry" />
        </mxCell>
        <mxCell id="P-wajaCejd0a9nJOUH1o-37" value="Write" style="edgeStyle=orthogonalEdgeStyle;rounded=0;orthogonalLoop=1;jettySize=auto;html=1;entryX=0.5;entryY=0;entryDx=0;entryDy=0;entryPerimeter=0;align=left;" parent="P-wajaCejd0a9nJOUH1o-4" source="P-wajaCejd0a9nJOUH1o-13" target="P-wajaCejd0a9nJOUH1o-32" edge="1">
          <mxGeometry x="0.3043" y="-14" relative="1" as="geometry">
            <mxPoint as="offset" />
          </mxGeometry>
        </mxCell>
        <mxCell id="P-wajaCejd0a9nJOUH1o-21" value="EC2" style="sketch=0;points=[[0,0,0],[0.25,0,0],[0.5,0,0],[0.75,0,0],[1,0,0],[0,1,0],[0.25,1,0],[0.5,1,0],[0.75,1,0],[1,1,0],[0,0.25,0],[0,0.5,0],[0,0.75,0],[1,0.25,0],[1,0.5,0],[1,0.75,0]];outlineConnect=0;fontColor=#232F3E;gradientColor=#F78E04;gradientDirection=north;fillColor=#D05C17;strokeColor=#ffffff;dashed=0;verticalLabelPosition=bottom;verticalAlign=top;align=center;html=1;fontSize=12;fontStyle=0;aspect=fixed;shape=mxgraph.aws4.resourceIcon;resIcon=mxgraph.aws4.ec2;" parent="P-wajaCejd0a9nJOUH1o-1" vertex="1">
          <mxGeometry x="600" y="365" width="70" height="70" as="geometry" />
        </mxCell>
        <mxCell id="P-wajaCejd0a9nJOUH1o-22" value="Public subnet" style="points=[[0,0],[0.25,0],[0.5,0],[0.75,0],[1,0],[1,0.25],[1,0.5],[1,0.75],[1,1],[0.75,1],[0.5,1],[0.25,1],[0,1],[0,0.75],[0,0.5],[0,0.25]];outlineConnect=0;gradientColor=none;html=1;whiteSpace=wrap;fontSize=12;fontStyle=0;container=1;pointerEvents=0;collapsible=0;recursiveResize=0;shape=mxgraph.aws4.group;grIcon=mxgraph.aws4.group_security_group;grStroke=0;strokeColor=#248814;fillColor=#E9F3E6;verticalAlign=top;align=left;spacingLeft=30;fontColor=#248814;dashed=0;" parent="P-wajaCejd0a9nJOUH1o-1" vertex="1">
          <mxGeometry x="560" y="120" width="280" height="120" as="geometry" />
        </mxCell>
        <mxCell id="P-wajaCejd0a9nJOUH1o-23" value="NAT Gateway" style="outlineConnect=0;dashed=0;verticalLabelPosition=bottom;verticalAlign=top;align=center;html=1;shape=mxgraph.aws3.vpc_nat_gateway;fillColor=#F58534;gradientColor=none;" parent="P-wajaCejd0a9nJOUH1o-1" vertex="1">
          <mxGeometry x="671.25" y="150" width="57.5" height="60" as="geometry" />
        </mxCell>
        <mxCell id="P-wajaCejd0a9nJOUH1o-24" value="AZ(ap-northeast-2a)" style="text;html=1;align=center;verticalAlign=middle;resizable=0;points=[];autosize=1;strokeColor=none;fillColor=none;" parent="P-wajaCejd0a9nJOUH1o-1" vertex="1">
          <mxGeometry x="220" y="800" width="130" height="30" as="geometry" />
        </mxCell>
        <mxCell id="P-wajaCejd0a9nJOUH1o-25" value="AZ(ap-northeast-2b)" style="text;html=1;align=center;verticalAlign=middle;resizable=0;points=[];autosize=1;strokeColor=none;fillColor=none;" parent="P-wajaCejd0a9nJOUH1o-1" vertex="1">
          <mxGeometry x="635" y="800" width="130" height="30" as="geometry" />
        </mxCell>
        <mxCell id="P-wajaCejd0a9nJOUH1o-30" value="Private subnet" style="points=[[0,0],[0.25,0],[0.5,0],[0.75,0],[1,0],[1,0.25],[1,0.5],[1,0.75],[1,1],[0.75,1],[0.5,1],[0.25,1],[0,1],[0,0.75],[0,0.5],[0,0.25]];outlineConnect=0;gradientColor=none;html=1;whiteSpace=wrap;fontSize=12;fontStyle=0;container=1;pointerEvents=0;collapsible=0;recursiveResize=0;shape=mxgraph.aws4.group;grIcon=mxgraph.aws4.group_security_group;grStroke=0;strokeColor=#147EBA;fillColor=#E6F2F8;verticalAlign=top;align=left;spacingLeft=30;fontColor=#147EBA;dashed=0;" parent="P-wajaCejd0a9nJOUH1o-1" vertex="1">
          <mxGeometry x="560" y="600" width="280" height="120" as="geometry" />
        </mxCell>
        <mxCell id="P-wajaCejd0a9nJOUH1o-35" value="RDS Primary&lt;br&gt;Standby" style="sketch=0;points=[[0,0,0],[0.25,0,0],[0.5,0,0],[0.75,0,0],[1,0,0],[0,1,0],[0.25,1,0],[0.5,1,0],[0.75,1,0],[1,1,0],[0,0.25,0],[0,0.5,0],[0,0.75,0],[1,0.25,0],[1,0.5,0],[1,0.75,0]];outlineConnect=0;fontColor=#232F3E;gradientColor=#4D72F3;gradientDirection=north;fillColor=#3334B9;strokeColor=#ffffff;dashed=0;verticalLabelPosition=bottom;verticalAlign=top;align=center;html=1;fontSize=12;fontStyle=0;aspect=fixed;shape=mxgraph.aws4.resourceIcon;resIcon=mxgraph.aws4.rds;" parent="P-wajaCejd0a9nJOUH1o-1" vertex="1">
          <mxGeometry x="600" y="630" width="60" height="60" as="geometry" />
        </mxCell>
        <mxCell id="P-wajaCejd0a9nJOUH1o-36" value="RDS&lt;br&gt;Red Replica&lt;br&gt;Standby" style="sketch=0;points=[[0,0,0],[0.25,0,0],[0.5,0,0],[0.75,0,0],[1,0,0],[0,1,0],[0.25,1,0],[0.5,1,0],[0.75,1,0],[1,1,0],[0,0.25,0],[0,0.5,0],[0,0.75,0],[1,0.25,0],[1,0.5,0],[1,0.75,0]];outlineConnect=0;fontColor=#232F3E;gradientColor=#4D72F3;gradientDirection=north;fillColor=#3334B9;strokeColor=#ffffff;dashed=0;verticalLabelPosition=middle;verticalAlign=middle;align=left;html=1;fontSize=12;fontStyle=0;aspect=fixed;shape=mxgraph.aws4.resourceIcon;resIcon=mxgraph.aws4.rds;labelPosition=right;" parent="P-wajaCejd0a9nJOUH1o-1" vertex="1">
          <mxGeometry x="700" y="630" width="60" height="60" as="geometry" />
        </mxCell>
        <mxCell id="P-wajaCejd0a9nJOUH1o-39" value="Sync" style="edgeStyle=orthogonalEdgeStyle;rounded=0;orthogonalLoop=1;jettySize=auto;html=1;entryX=0;entryY=0.5;entryDx=0;entryDy=0;entryPerimeter=0;" parent="P-wajaCejd0a9nJOUH1o-1" source="P-wajaCejd0a9nJOUH1o-32" target="P-wajaCejd0a9nJOUH1o-35" edge="1">
          <mxGeometry relative="1" as="geometry" />
        </mxCell>
        <mxCell id="P-wajaCejd0a9nJOUH1o-40" value="Sync" style="edgeStyle=orthogonalEdgeStyle;rounded=1;orthogonalLoop=1;jettySize=auto;html=1;entryX=0.5;entryY=1;entryDx=0;entryDy=0;entryPerimeter=0;" parent="P-wajaCejd0a9nJOUH1o-1" source="P-wajaCejd0a9nJOUH1o-34" target="P-wajaCejd0a9nJOUH1o-36" edge="1">
          <mxGeometry relative="1" as="geometry">
            <Array as="points">
              <mxPoint x="270" y="740" />
              <mxPoint x="730" y="740" />
            </Array>
          </mxGeometry>
        </mxCell>
        <mxCell id="P-wajaCejd0a9nJOUH1o-26" style="edgeStyle=orthogonalEdgeStyle;rounded=0;orthogonalLoop=1;jettySize=auto;html=1;" parent="1" source="P-wajaCejd0a9nJOUH1o-27" target="P-wajaCejd0a9nJOUH1o-15" edge="1">
          <mxGeometry relative="1" as="geometry" />
        </mxCell>
        <mxCell id="P-wajaCejd0a9nJOUH1o-27" value="" style="sketch=0;outlineConnect=0;fontColor=#232F3E;gradientColor=none;strokeColor=#232F3E;fillColor=#ffffff;dashed=0;verticalLabelPosition=bottom;verticalAlign=top;align=center;html=1;fontSize=12;fontStyle=0;shape=mxgraph.aws4.resourceIcon;resIcon=mxgraph.aws4.internet_alt1;" parent="1" vertex="1">
          <mxGeometry x="505" y="10" width="70" height="50" as="geometry" />
        </mxCell>
        <mxCell id="P-wajaCejd0a9nJOUH1o-28" style="edgeStyle=orthogonalEdgeStyle;rounded=0;orthogonalLoop=1;jettySize=auto;html=1;" parent="1" source="P-wajaCejd0a9nJOUH1o-15" target="P-wajaCejd0a9nJOUH1o-27" edge="1">
          <mxGeometry relative="1" as="geometry" />
        </mxCell>
      </root>
    </mxGraphModel>
  </diagram>
</mxfile>
